HIERARCHY
ROOT hip
{
  OFFSET -107.062 66.2571 -284.531
  CHANNELS 6 Xposition Yposition Zposition Zrotation Xrotation Yrotation
  JOINT abdomen
  {
    OFFSET 0 20.6881 -0.73152
    CHANNELS 3 Zrotation Xrotation Yrotation
    JOINT chest
    {
      OFFSET 0 11.7043 -0.48768
      CHANNELS 3 Zrotation Xrotation Yrotation
      JOINT neck
      {
        OFFSET 0 22.1894 -2.19456
        CHANNELS 3 Zrotation Xrotation Yrotation
        JOINT head
        {
          OFFSET -0.24384 7.07133 1.2192
          CHANNELS 3 Zrotation Xrotation Yrotation
          JOINT leftEye
          {
            OFFSET 4.14528 8.04674 8.04672
            CHANNELS 3 Zrotation Xrotation Yrotation
            End Site
            {
              OFFSET 1 0 0
            }
          }
          JOINT rightEye
          {
            OFFSET -3.6576 8.04674 8.04672
            CHANNELS 3 Zrotation Xrotation Yrotation
            End Site
            {
              OFFSET 1 0 0
            }
          }
        }
      }
      JOINT rCollar
      {
        OFFSET -2.68224 19.2634 -4.8768
        CHANNELS 3 Zrotation Xrotation Yrotation
        JOINT rShldr
        {
          OFFSET -8.77824 -1.95073 1.46304
          CHANNELS 3 Zrotation Xrotation Yrotation
          JOINT rForeArm
          {
            OFFSET -28.1742 -1.7115 0.48768
            CHANNELS 3 Zrotation Xrotation Yrotation
            JOINT rHand
            {
              OFFSET -22.5879 0.773209 7.07136
              CHANNELS 3 Zrotation Xrotation Yrotation
              JOINT rThumb1
              {
                OFFSET -1.2192 -0.487915 3.41376
                CHANNELS 3 Zrotation Xrotation Yrotation
                JOINT rThumb2
                {
                  OFFSET -3.37035 -0.52449 3.41376
                  CHANNELS 3 Zrotation Xrotation Yrotation
                  End Site
                  {
                    OFFSET -1.78271 -1.18214 1.43049
                  }
                }
              }
              JOINT rIndex1
              {
                OFFSET -7.75947 0.938293 5.60832
                CHANNELS 3 Zrotation Xrotation Yrotation
                JOINT rIndex2
                {
                  OFFSET -2.54057 -0.884171 1.56538
                  CHANNELS 3 Zrotation Xrotation Yrotation
                  End Site
                  {
                    OFFSET -1.62519 -0.234802 1.16502
                  }
                }
              }
              JOINT rMid1
              {
                OFFSET -8.24714 1.18213 3.41376
                CHANNELS 3 Zrotation Xrotation Yrotation
                JOINT rMid2
                {
                  OFFSET -3.10165 -0.590103 1.0647
                  CHANNELS 3 Zrotation Xrotation Yrotation
                  End Site
                  {
                    OFFSET -2.48547 -0.328903 0.83742
                  }
                }
              }
              JOINT rRing1
              {
                OFFSET -8.82822 0.546677 1.51678
                CHANNELS 3 Zrotation Xrotation Yrotation
                JOINT rRing2
                {
                  OFFSET -2.60934 -0.819778 -0.0198488
                  CHANNELS 3 Zrotation Xrotation Yrotation
                  End Site
                  {
                    OFFSET -2.33842 -0.294052 0.168128
                  }
                }
              }
              JOINT rPinky1
              {
                OFFSET -8.27202 -0.0477905 -0.4584
                CHANNELS 3 Zrotation Xrotation Yrotation
                JOINT rPinky2
                {
                  OFFSET -1.82734 -0.647385 -0.700984
                  CHANNELS 3 Zrotation Xrotation Yrotation
                  End Site
                  {
                    OFFSET -1.69225 -0.51767 -0.607171
                  }
                }
              }
            }
          }
        }
      }
      JOINT lCollar
      {
        OFFSET 2.68224 19.2634 -4.8768
        CHANNELS 3 Zrotation Xrotation Yrotation
        JOINT lShldr
        {
          OFFSET 8.77824 -1.95073 1.46304
          CHANNELS 3 Zrotation Xrotation Yrotation
          JOINT lForeArm
          {
            OFFSET 28.1742 -1.7115 0.48768
            CHANNELS 3 Zrotation Xrotation Yrotation
            JOINT lHand
            {
              OFFSET 22.5879 0.773209 7.07136
              CHANNELS 3 Zrotation Xrotation Yrotation
              JOINT lThumb1
              {
                OFFSET 1.2192 -0.487915 3.41376
                CHANNELS 3 Zrotation Xrotation Yrotation
                JOINT lThumb2
                {
                  OFFSET 3.37035 -0.52449 3.41376
                  CHANNELS 3 Zrotation Xrotation Yrotation
                  End Site
                  {
                    OFFSET 1.78271 -1.18214 1.43049
                  }
                }
              }
              JOINT lIndex1
              {
                OFFSET 7.75947 0.938293 5.60832
                CHANNELS 3 Zrotation Xrotation Yrotation
                JOINT lIndex2
                {
                  OFFSET 2.54057 -0.884171 1.56538
                  CHANNELS 3 Zrotation Xrotation Yrotation
                  End Site
                  {
                    OFFSET 1.62519 -0.234802 1.16502
                  }
                }
              }
              JOINT lMid1
              {
                OFFSET 8.24714 1.18213 3.41376
                CHANNELS 3 Zrotation Xrotation Yrotation
                JOINT lMid2
                {
                  OFFSET 3.10165 -0.590103 1.0647
                  CHANNELS 3 Zrotation Xrotation Yrotation
                  End Site
                  {
                    OFFSET 2.48547 -0.328903 0.83742
                  }
                }
              }
              JOINT lRing1
              {
                OFFSET 8.82822 0.546677 1.51678
                CHANNELS 3 Zrotation Xrotation Yrotation
                JOINT lRing2
                {
                  OFFSET 2.60934 -0.819778 -0.0198488
                  CHANNELS 3 Zrotation Xrotation Yrotation
                  End Site
                  {
                    OFFSET 2.33842 -0.294052 0.168128
                  }
                }
              }
              JOINT lPinky1
              {
                OFFSET 8.27202 -0.0477905 -0.4584
                CHANNELS 3 Zrotation Xrotation Yrotation
                JOINT lPinky2
                {
                  OFFSET 1.82734 -0.647385 -0.700984
                  CHANNELS 3 Zrotation Xrotation Yrotation
                  End Site
                  {
                    OFFSET 1.69225 -0.51767 -0.607171
                  }
                }
              }
            }
          }
        }
      }
    }
  }
  JOINT rButtock
  {
    OFFSET -8.77824 4.35084 1.2192
    CHANNELS 3 Zrotation Xrotation Yrotation
    JOINT rThigh
    {
      OFFSET 0 -1.70687 -2.19456
      CHANNELS 3 Zrotation Xrotation Yrotation
      JOINT rShin
      {
        OFFSET 0 -36.8199 0.73152
        CHANNELS 3 Zrotation Xrotation Yrotation
        JOINT rFoot
        {
          OFFSET 0.73152 -45.1104 -5.12064
          CHANNELS 3 Zrotation Xrotation Yrotation
          End Site
          {
            OFFSET -1.1221 -3.69964 12.103
          }
        }
      }
    }
  }
  JOINT lButtock
  {
    OFFSET 8.77824 4.35084 1.2192
    CHANNELS 3 Zrotation Xrotation Yrotation
    JOINT lThigh
    {
      OFFSET 0 -1.70687 -2.19456
      CHANNELS 3 Zrotation Xrotation Yrotation
      JOINT lShin
      {
        OFFSET 0 -36.8199 0.73152
        CHANNELS 3 Zrotation Xrotation Yrotation
        JOINT lFoot
        {
          OFFSET -0.73152 -45.1104 -5.12064
          CHANNELS 3 Zrotation Xrotation Yrotation
          End Site
          {
            OFFSET 1.1221 -3.69964 12.103
          }
        }
      }
    }
  }
}
MOTION
Frames:	4
Frame Time:	0.00833333
-36.9336 62.0739 -122.965 2.37185 8.86873 139.2 -0.362116 19.2617 -3.87834 2.16695 -11.0404 -0.921433 -7.8093 -3.63223 -5.37002 9.55598 -10.8451 -7.18079 -0 0 0 -0 0 0 4.38077e-014 1.3438e-013 -4.22914e-013 69.8904 37.193 4.52636 -26.3338 -24.3229 58.1967 -0.0522957 -6.51212 -0.91922 -3.80321e-010 -9.98742e-009 3.23509e-009 -6.7519e-010 -1.72606e-008 5.58733e-009 -3.80319e-010 -9.98741e-009 3.23507e-009 7.73091 5.47488 0.417314 -3.80327e-010 -9.98741e-009 3.23509e-009 2.90554 0.965183 0.102902 -3.80315e-010 -9.98741e-009 3.23508e-009 10.2786 0.731801 0.0259123 -3.80324e-010 -9.98741e-009 3.23509e-009 2.22167 -0.733487 -0.20892 4.36605e-014 1.34376e-013 -4.23113e-013 -76.9125 57.0728 -7.7407 27.254 -43.2958 -90.061 0.0732904 7.70085 -1.08891 1.50812e-009 4.80454e-009 -1.72989e-009 2.6011e-009 8.35423e-009 -3.00022e-009 1.50812e-009 4.80454e-009 -1.72989e-009 -7.73091 5.47488 -0.417314 1.50812e-009 4.80453e-009 -1.72989e-009 -2.90554 0.965183 -0.102902 1.50811e-009 4.80455e-009 -1.7299e-009 -10.2786 0.731801 -0.0259123 1.50813e-009 4.80455e-009 -1.7299e-009 -2.22167 -0.733487 0.20892 -2.03217e-016 0 -3.88251e-019 -1.33367 -39.2065 -6.15824 -2.25834 72.8338 3.44303 -5.61917 -17.2501 -15.0641 2.03217e-016 0 3.88251e-019 2.42505 -47.0233 -4.68184 13.6471 85.6312 -13.7009 -5.68177 -15.1385 -17.0853 
-37.1868 62.5925 -123.376 2.07583 8.46635 139.081 -0.219969 18.9418 -3.77725 2.1869 -10.9519 -0.886429 -7.86636 -3.5935 -5.45855 9.41045 -11.1289 -7.32867 -0 0 0 -0 0 0 -4.90162e-015 1.94698e-013 -1.45892e-013 69.6773 36.6417 4.53138 -26.3927 -24.4869 58.4603 -0.0565742 -6.78214 -0.957667 -5.03089e-010 -7.26732e-009 2.18865e-009 -8.81726e-010 -1.25592e-008 3.77957e-009 -5.03087e-010 -7.26731e-009 2.18864e-009 7.73091 5.47488 0.417314 -5.03094e-010 -7.26731e-009 2.18865e-009 2.90554 0.965183 0.102902 -5.03082e-010 -7.26732e-009 2.18865e-009 10.2786 0.731801 0.0259123 -5.0309e-010 -7.26732e-009 2.18865e-009 2.22167 -0.733487 -0.20892 -5.05772e-015 1.94694e-013 -1.46108e-013 -77.8825 56.3167 -6.33813 27.3895 -42.8894 -89.2612 0.0857884 8.1903 -1.15937 1.16163e-009 4.51965e-009 -1.6866e-009 1.99954e-009 7.84127e-009 -2.92179e-009 1.16163e-009 4.51966e-009 -1.6866e-009 -7.73091 5.47488 -0.417314 1.16164e-009 4.51964e-009 -1.6866e-009 -2.90554 0.965183 -0.102902 1.16163e-009 4.51966e-009 -1.6866e-009 -10.2786 0.731801 -0.0259123 1.16164e-009 4.51966e-009 -1.6866e-009 -2.22167 -0.733487 0.20892 -2.03217e-016 0 -3.88251e-019 -1.03203 -38.5792 -5.84429 -2.07361 71.7677 3.2478 -5.77356 -17.3129 -15.3778 2.03217e-016 0 3.88251e-019 1.9179 -46.8426 -4.63889 8.47951 83.2606 -8.51141 -5.62378 -15.497 -16.6829 
-37.4339 63.1167 -123.787 1.77128 8.08122 138.99 -0.0754642 18.6139 -3.62652 2.21054 -10.8474 -0.838263 -7.92888 -3.52685 -5.55602 9.28353 -11.4257 -7.49562 -0 0 0 -0 0 0 -7.00259e-014 2.39866e-013 3.83406e-013 69.5799 35.9954 4.43104 -26.4489 -24.6453 58.713 -0.0621931 -7.11092 -1.00456 -7.55665e-010 -9.09211e-010 -1.29258e-010 -1.30599e-009 -1.56794e-009 -2.25314e-010 -7.55664e-010 -9.09202e-010 -1.29268e-010 7.73091 5.47488 0.417314 -7.5567e-010 -9.09203e-010 -1.2926e-010 2.90554 0.965183 0.102902 -7.55657e-010 -9.09203e-010 -1.29264e-010 10.2786 0.731801 0.0259123 -7.55664e-010 -9.09208e-010 -1.29257e-010 2.22167 -0.733487 -0.20892 -7.01872e-014 2.39863e-013 3.83154e-013 -78.7875 55.5226 -4.98667 27.5411 -42.34 -88.2579 0.0896572 8.35825 -1.18354 3.945e-010 2.81032e-009 -1.12839e-009 6.69458e-010 4.85107e-009 -1.95012e-009 3.94496e-010 2.81033e-009 -1.12839e-009 -7.73091 5.47488 -0.417314 3.94502e-010 2.81032e-009 -1.1284e-009 -2.90554 0.965183 -0.102902 3.94494e-010 2.81033e-009 -1.1284e-009 -10.2786 0.731801 -0.0259123 3.94504e-010 2.81033e-009 -1.12841e-009 -2.22167 -0.733487 0.20892 -2.03217e-016 0 -3.88251e-019 -0.682825 -37.9409 -5.47564 -1.90375 70.6627 3.06811 -5.91286 -17.3395 -15.6784 2.03217e-016 0 3.88251e-019 1.48681 -46.5326 -4.61341 5.89597 80.7645 -5.92875 -5.42772 -15.7927 -15.9714 
-37.6821 63.6424 -124.185 1.46542 7.71309 138.926 0.065598 18.2751 -3.44561 2.23542 -10.7335 -0.781935 -7.99414 -3.42823 -5.65492 9.18182 -11.7219 -7.66798 -0 0 0 -0 0 0 -1.25408e-013 2.60618e-013 9.05548e-013 69.5622 35.3145 4.26692 -26.4984 -24.7869 58.9394 -0.0685167 -7.45483 -1.0537 -1.01107e-009 5.72951e-009 -2.52167e-009 -1.73479e-009 9.90895e-009 -4.35909e-009 -1.01107e-009 5.72953e-009 -2.52168e-009 7.73091 5.47488 0.417314 -1.01107e-009 5.72952e-009 -2.52167e-009 2.90554 0.965183 0.102902 -1.01106e-009 5.72953e-009 -2.52167e-009 10.2786 0.731801 0.0259123 -1.01107e-009 5.72952e-009 -2.52167e-009 2.22167 -0.733487 -0.20892 -1.25569e-013 2.60615e-013 9.05262e-013 -79.6222 54.6997 -3.69888 27.7062 -41.6908 -87.0674 0.0863734 8.26449 -1.16993 -4.03556e-010 7.72951e-010 -4.34412e-010 -7.13521e-010 1.29484e-009 -7.43802e-010 -4.03561e-010 7.72968e-010 -4.34408e-010 -7.73091 5.47488 -0.417314 -4.03553e-010 7.72954e-010 -4.34416e-010 -2.90554 0.965183 -0.102902 -4.03559e-010 7.72957e-010 -4.34417e-010 -10.2786 0.731801 -0.0259123 -4.03552e-010 7.72957e-010 -4.34427e-010 -2.22167 -0.733487 0.20892 -2.03217e-016 0 -3.88251e-019 -0.319744 -37.3005 -5.0844 -1.75003 69.539 2.90409 -6.03382 -17.3391 -15.9529 2.03217e-016 0 3.88251e-019 1.12052 -46.1034 -4.6078 4.41194 78.2845 -4.45828 -5.14577 -16.0227 -15.0929 
